<?xml version="1.0" encoding="UTF-8"?>
<svg id="Capa_1" data-name="Capa 1" xmlns="http://www.w3.org/2000/svg" viewBox="0 0 1920 1080">
  <defs>
    <style>
      .cls-1 {
        fill: #ec662e;
      }
    </style>
  </defs>
  <path class="cls-1" d="M503.27,571.74c18.7-21.48,19.99-48.85,20.26-57,.3-8.83,.82-34.66-15.63-57.64-10.73-15-24.03-21.89-29.24-24.29-7.22-3.33-13.7-4.79-18.39-5.49-.08-.01-131.39-.13-164.54-.16-4.16,0-7.53,3.36-7.53,7.52,0,33.2,0,166.72,0,206.54,0,6.24,5.05,11.26,11.29,11.26h45.64c6.24,0,11.29-5.06,11.29-11.29v-32.57c0-6.26,5.09-11.32,11.34-11.29l36.95,.18c4.07,.02,7.81,2.23,9.8,5.78l24.48,43.76c2,3.57,5.76,5.78,9.85,5.78h52.79c8.5,.01,13.96-9.04,9.98-16.56l-26.29-49.77h0c4.66-2.67,11.4-7.25,17.93-14.75Zm-64.51-32.36h-70.98c-6.24,0-11.29-5.06-11.29-11.29v-32.23c0-6.24,5.05-11.29,11.29-11.29h70.98c10.24,0,18.54,12.27,18.54,27.4s-8.3,27.4-18.54,27.4Z"/>
  <path class="cls-1" d="M1066.65,559.13c-14.27-.2-34.04-.48-47.83-.68-4.88-.07-9.44,2.94-10.83,7.62-7.74,25.99-50.18,29.01-74.22,25.75-32.86-4.46-42.9-40.69-39.84-63.27,3.69-27.24,21.78-40.46,49.44-42.08,32.02-1.87,57.5,4.46,63.38,21.61,1.55,4.51,5.87,7.46,10.63,7.44,14.04-.07,34.38-.16,49.02-.23,6.61-.03,11.83-5.73,11.2-12.31-7.52-78.93-93.51-91.15-172.1-78.48-62.01,10-85.51,76.35-79.7,126.36,11.99,94.05,65.94,117.22,159.94,106.51,46.71-4.18,87.28-38.32,91.98-85.83,.65-6.58-4.48-12.33-11.09-12.42Z"/>
  <path class="cls-1" d="M1331.3,426.77h-45.7c-6.24,0-11.29,5.05-11.29,11.29v59.4c0,6.24-5.05,11.29-11.29,11.29h-76.28c-6.24,0-11.29-5.05-11.29-11.29v-59.4c0-6.24-5.05-11.29-11.29-11.29h-45.7c-6.24,0-11.29,5.05-11.29,11.29v204.85c0,6.24,5.05,11.29,11.29,11.29h45.7c6.24,0,11.29-5.05,11.29-11.29v-59.5c0-6.21,5.02-11.26,11.23-11.29l76.28-.38c6.26-.03,11.35,5.03,11.35,11.29v59.89c0,6.24,5.05,11.29,11.29,11.29h45.7c6.24,0,11.29-5.05,11.29-11.29v-204.85c0-6.24-5.05-11.29-11.29-11.29Z"/>
  <path class="cls-1" d="M1629.26,600.46l-96.15-166.12c-3.36-5.81-9.57-9.39-16.29-9.39h-30.1c-6.73,0-12.95,3.6-16.31,9.43l-95.65,166.25c-3.35,5.83-3.34,13,.03,18.82,4.35,7.51,10.44,18.01,14.88,25.65,3.72,6.4,10.84,10.01,18.2,9.26,42.01-4.31,71.14-30.21,74.83-78.16,.21-2.65-1.61-4.96-4.18-5.46l-9.51-1.89c-1.84-.38-3.27-1.6-3.89-3.4-.62-1.81-.25-3.65,1.02-5.1l44.82-51.43c1.29-1.41,3.05-2.01,4.94-1.66,1.84,.38,3.27,1.6,3.89,3.4l22.08,64.55c.62,1.81,.25,3.65-1.02,5.1-1.22,1.43-2.98,2.03-4.86,1.68l-9.84-1.94c-1.49-.28-2.87,.04-4.09,.93-1.2,.94-1.87,2.17-2.04,3.65-2.29,23.73-14.51,51.11-33.56,64.25-2.66,1.84-1.24,6.04,1.99,6.04l109.55-.17c6.71-.01,12.91-3.6,16.27-9.41l15.02-26.03c3.36-5.83,3.36-13.01-.01-18.83Z"/>
  <path class="cls-1" d="M816.75,637.52l-83.65-203.78c-1.74-4.24-5.86-7-10.44-7h-81.41c-4.63,0-8.79,2.83-10.5,7.13l-80.78,203.91c-2.94,7.41,2.53,15.45,10.5,15.45h50.28c4.53,0,8.61-2.7,10.39-6.87l11.71-27.5c1.77-4.16,5.86-6.87,10.39-6.87h80.01c4.56,0,8.68,2.75,10.43,6.96l11.33,27.29c1.75,4.22,5.87,6.97,10.44,6.96,11.83-.02,35.02-.07,50.93-.12,8.02-.02,13.43-8.16,10.38-15.58Zm-119.05-64.39h-28.99c-7.72,0-13.16-7.57-10.7-14.89l14.11-49.53c3.42-10.17,17.76-10.29,21.34-.17l14.88,49.53c2.6,7.35-2.85,15.06-10.64,15.06Z"/>
</svg>